<?xml version="1.0" encoding="utf-8"?>
<!-- Generator: Adobe Illustrator 24.1.2, SVG Export Plug-In . SVG Version: 6.00 Build 0)  -->
<svg version="1.1" id="Capa_1" xmlns="http://www.w3.org/2000/svg" xmlns:xlink="http://www.w3.org/1999/xlink" x="0px" y="0px"
	 viewBox="0 0 50 50" style="enable-background:new 0 0 50 50;" xml:space="preserve">
<style type="text/css">
	.st0{fill:#FFFFFF;}
</style>
<g>
	<path class="st0" d="M26.32,0c1.48,0.3,2.88,0.79,4.1,1.71c2.44,1.84,3.73,4.28,3.83,7.33c0.01,0.39,0.03,0.78,0,1.17
		c-0.04,0.44,0.11,0.59,0.57,0.59c2.08-0.02,4.16-0.01,6.24-0.01c1.21,0,1.75,0.55,1.87,1.76c0.23,2.39,0.5,4.78,0.75,7.17
		c0.24,2.34,0.48,4.68,0.72,7.03c0.24,2.29,0.49,4.58,0.74,6.88c0.24,2.29,0.48,4.59,0.72,6.88c0.25,2.36,0.5,4.71,0.75,7.07
		c0.03,0.24,0.04,0.49,0.05,0.73c0.03,1.05-0.57,1.68-1.63,1.68c-4.29,0-8.58,0-12.88,0c-8.98,0-17.95-0.01-26.93,0.02
		c-1.13,0-2-0.61-1.85-1.97c0.22-1.98,0.42-3.97,0.63-5.96c0.21-2,0.43-4,0.64-6.01c0.25-2.37,0.5-4.75,0.75-7.12
		c0.24-2.28,0.47-4.55,0.71-6.83c0.25-2.37,0.5-4.75,0.75-7.12c0.1-0.92,0.16-1.85,0.29-2.76c0.14-1,0.69-1.44,1.69-1.45
		c2.05-0.01,4.1,0,6.15,0c0.78,0,0.8,0,0.77-0.81c-0.05-1.74,0.19-3.41,1.01-4.96c1.45-2.73,3.7-4.38,6.74-4.96
		c0.1-0.01,0.19-0.04,0.28-0.06C24.63,0,25.47,0,26.32,0z M24.98,46.91c5.92,0,11.83,0,17.75,0c0.65,0,0.69-0.02,0.63-0.65
		c-0.2-1.97-0.41-3.94-0.62-5.91c-0.25-2.32-0.49-4.65-0.74-6.97c-0.24-2.31-0.48-4.62-0.72-6.93c-0.28-2.65-0.56-5.29-0.84-7.94
		c-0.14-1.36-0.28-2.71-0.42-4.07c-0.03-0.31-0.06-0.59-0.53-0.59c-1.59,0.02-3.19,0.02-4.78,0c-0.37,0-0.47,0.15-0.47,0.5
		c0.02,0.86,0.01,1.72,0,2.58c0,0.19-0.01,0.39-0.07,0.58c-0.21,0.7-0.92,1.17-1.6,1.08c-0.8-0.1-1.37-0.69-1.4-1.5
		c-0.03-0.91-0.02-1.82,0-2.73c0.01-0.34-0.09-0.5-0.46-0.5c-3.8,0.01-7.61,0.01-11.41,0c-0.37,0-0.48,0.14-0.47,0.49
		c0.02,0.84,0.01,1.69,0,2.54c-0.01,1.01-0.65,1.73-1.53,1.72c-0.91-0.01-1.54-0.71-1.55-1.71c-0.01-0.85-0.01-1.69,0-2.54
		c0.01-0.34-0.08-0.51-0.46-0.5c-1.61,0.01-3.22,0.01-4.83,0c-0.28,0-0.42,0.09-0.44,0.38c-0.05,0.65-0.13,1.29-0.2,1.94
		c-0.25,2.31-0.5,4.61-0.74,6.92c-0.25,2.34-0.47,4.68-0.72,7.02c-0.31,2.92-0.63,5.84-0.94,8.76c-0.26,2.42-0.5,4.84-0.76,7.26
		c-0.08,0.7-0.05,0.75,0.66,0.75C13.21,46.91,19.09,46.91,24.98,46.91z M25,10.79c1.85,0,3.71-0.02,5.56,0.01
		c0.51,0.01,0.67-0.16,0.62-0.64c-0.03-0.32-0.01-0.65-0.01-0.97c-0.02-2.86-1.98-5.35-4.74-5.99c-2.81-0.66-5.64,0.68-6.95,3.27
		c-0.59,1.16-0.68,2.39-0.65,3.65c0.02,0.68,0,0.68,0.66,0.68C21.33,10.79,23.17,10.79,25,10.79z"/>
</g>
</svg>
