<?xml version="1.0" encoding="utf-8"?>
<!-- Generator: Adobe Illustrator 24.1.2, SVG Export Plug-In . SVG Version: 6.00 Build 0)  -->
<svg version="1.1" id="Capa_1" xmlns="http://www.w3.org/2000/svg" xmlns:xlink="http://www.w3.org/1999/xlink" x="0px" y="0px"
	 viewBox="0 0 50 50" style="enable-background:new 0 0 50 50;" xml:space="preserve">
<style type="text/css">
	.st0{fill:#FFFFFF;}
</style>
<g>
	<path class="st0" d="M8.01,44.83c0.09-1.31,0.38-2.59,0.6-3.89c0.47-2.8,0.96-5.6,1.45-8.39c0.08-0.46-0.07-0.78-0.39-1.1
		c-2.81-2.74-5.62-5.48-8.41-8.23c-1.59-1.57-1.67-3.92-0.23-5.61c0.74-0.86,1.72-1.26,2.83-1.42c3.81-0.54,7.61-1.1,11.42-1.64
		c0.43-0.06,0.66-0.29,0.84-0.65c1.72-3.5,3.46-7,5.18-10.5c0.49-1,1.24-1.72,2.28-2.11c2.01-0.76,4.15,0.1,5.14,2.09
		c1.56,3.12,3.15,6.23,4.61,9.4c0.56,1.21,1.22,1.83,2.62,1.98c3.37,0.36,6.72,0.95,10.09,1.42c2.12,0.3,3.49,1.41,3.88,3.27
		c0.32,1.53-0.13,2.84-1.25,3.93c-2.74,2.68-5.48,5.36-8.24,8.02c-0.41,0.4-0.52,0.79-0.42,1.34c0.67,3.8,1.34,7.61,1.96,11.42
		c0.26,1.61-0.25,3.01-1.59,4c-1.35,0.99-2.84,1.13-4.33,0.36c-3.4-1.76-6.8-3.54-10.17-5.36c-0.64-0.34-1.12-0.31-1.74,0.02
		c-3.36,1.8-6.73,3.58-10.12,5.33c-2.22,1.14-4.75,0.19-5.71-2.08C8.08,45.9,7.99,45.38,8.01,44.83z M38.45,44.8
		c-0.01-0.05-0.03-0.12-0.04-0.19c-0.61-3.58-1.15-7.17-1.87-10.73c-0.44-2.2,0.05-3.89,1.71-5.42c2.62-2.41,5.12-4.95,7.67-7.44
		c0.23-0.23,0.58-0.43,0.47-0.84c-0.12-0.46-0.56-0.41-0.89-0.46c-3.75-0.56-7.5-1.11-11.25-1.64c-1.61-0.23-2.76-1.02-3.48-2.48
		c-1.66-3.39-3.34-6.77-5.02-10.16c-0.17-0.34-0.26-0.83-0.75-0.82c-0.48,0.01-0.57,0.49-0.74,0.84c-1.68,3.38-3.36,6.77-5.02,10.16
		c-0.66,1.34-1.7,2.16-3.17,2.41c-1.04,0.18-2.1,0.31-3.15,0.46c-2.88,0.42-5.76,0.85-8.64,1.27C4,19.8,3.74,19.84,3.63,20.15
		c-0.12,0.32,0.1,0.51,0.29,0.7c0.84,0.83,1.69,1.67,2.54,2.49c2,1.95,4.01,3.88,5.99,5.84c0.95,0.94,1.39,2.11,1.19,3.44
		c-0.29,1.94-0.65,3.86-0.98,5.79c-0.35,2.07-0.7,4.15-1.07,6.22c-0.04,0.25-0.02,0.46,0.17,0.64c0.21,0.18,0.43,0.13,0.65,0.02
		c0.13-0.06,0.26-0.13,0.39-0.19c3.34-1.76,6.69-3.5,10.03-5.28c1.48-0.79,2.9-0.78,4.37,0.01c2.68,1.44,5.38,2.84,8.07,4.25
		c0.78,0.41,1.55,0.83,2.35,1.22C38.06,45.51,38.45,45.27,38.45,44.8z"/>
</g>
</svg>
