<?xml version="1.0" encoding="utf-8"?>
<!-- Generator: Adobe Illustrator 24.1.2, SVG Export Plug-In . SVG Version: 6.00 Build 0)  -->
<svg version="1.1" id="Capa_1" xmlns="http://www.w3.org/2000/svg" xmlns:xlink="http://www.w3.org/1999/xlink" x="0px" y="0px"
	 viewBox="0 0 50 50" style="enable-background:new 0 0 50 50;" xml:space="preserve">
<style type="text/css">
	.st0{fill:#FFFFFF;}
</style>
<g>
	<path class="st0" d="M24.94,49.93C11.12,49.91-0.04,38.71,0,24.87C0.04,11.16,11.35,0.04,25.23,0.07
		C38.81,0.1,50.01,11.42,50,25.11C49.99,38.79,38.74,49.94,24.94,49.93z M5.07,25.08c0,4.85,1.85,9.71,5.07,13.2
		c0.43,0.47,0.84,1.37,1.45,1.15c0.5-0.18,0.2-1.14,0.2-1.75c0-4.44,1.46-8.25,5-11.06c0.94-0.75,1.03-1.15,0.32-2.15
		c-2.74-3.85-2.13-9.06,1.3-12.33c3.44-3.28,8.7-3.53,12.5-0.58c3.65,2.83,4.73,8.02,2.51,12.09c-0.37,0.68-1.18,1.34-1.14,1.98
		c0.04,0.75,1.13,1.08,1.72,1.64c3.22,3.07,4.29,6.91,4.18,11.21c-0.01,0.34-0.14,0.83,0.18,0.99c0.43,0.2,0.66-0.3,0.91-0.57
		c4.35-4.66,6.24-10.13,5.47-16.5C43.43,11.54,33.15,3.67,22.3,5.22C12.33,6.65,5.06,15.03,5.07,25.08z M16.93,39.28
		c-0.03,0-0.05,0-0.08,0c0,0.94,0.04,1.88-0.01,2.82c-0.05,0.84,0.3,1.29,1.08,1.57c4.76,1.73,9.5,1.71,14.25-0.04
		c0.67-0.25,1.02-0.62,1-1.38c-0.04-1.84,0.05-3.69-0.03-5.52c-0.19-4.32-3.4-7.71-7.49-7.99c-4.38-0.29-8,2.59-8.7,7.03
		C16.78,36.91,16.93,38.11,16.93,39.28z M25.03,23.64c2.55-0.02,4.6-2.07,4.56-4.57c-0.04-2.52-2.09-4.51-4.64-4.49
		c-2.54,0.01-4.58,2.07-4.56,4.57C20.42,21.67,22.47,23.66,25.03,23.64z"/>
</g>
</svg>
